<mxfile host="app.diagrams.net" modified="2023-02-24T12:11:55.398Z" agent="5.0 (Windows NT 10.0; Win64; x64) AppleWebKit/537.36 (KHTML, like Gecko) Chrome/109.0.0.0 Safari/537.36" etag="50ECkz8ERwuMfd8fFfAo" version="20.8.23" type="github" pages="5">
  <diagram name="Verificacao" id="58cdce13-f638-feb5-8d6f-7d28b1aa9fa0">
    <mxGraphModel dx="1259" dy="1558" grid="1" gridSize="10" guides="1" tooltips="1" connect="1" arrows="1" fold="1" page="1" pageScale="1" pageWidth="1100" pageHeight="850" background="none" math="0" shadow="0">
      <root>
        <mxCell id="0" />
        <mxCell id="1" parent="0" />
        <mxCell id="XvRTc8nWdfIURf5c1jla-19" value="Ciclo de verificação" style="swimlane;whiteSpace=wrap;html=1;" parent="1" vertex="1">
          <mxGeometry x="175" y="-10" width="1085" height="660" as="geometry" />
        </mxCell>
        <mxCell id="382b91b5511bd0f7-1" value="" style="ellipse;html=1;shape=startState;fillColor=#000000;strokeColor=#ff0000;rounded=1;shadow=0;comic=0;labelBackgroundColor=none;fontFamily=Verdana;fontSize=12;fontColor=#000000;align=center;direction=south;" parent="XvRTc8nWdfIURf5c1jla-19" vertex="1">
          <mxGeometry x="10" y="125" width="30" height="30" as="geometry" />
        </mxCell>
        <mxCell id="382b91b5511bd0f7-6" value="Solicita referência" style="rounded=1;whiteSpace=wrap;html=1;arcSize=24;fillColor=#ffffc0;strokeColor=#ff0000;shadow=0;comic=0;labelBackgroundColor=none;fontFamily=Verdana;fontSize=12;fontColor=#000000;align=center;" parent="XvRTc8nWdfIURf5c1jla-19" vertex="1">
          <mxGeometry x="625" y="110.62" width="120" height="60" as="geometry" />
        </mxCell>
        <mxCell id="XvRTc8nWdfIURf5c1jla-22" value="" style="edgeStyle=orthogonalEdgeStyle;html=1;labelBackgroundColor=none;endArrow=none;endSize=8;strokeColor=#ff0000;fontFamily=Verdana;fontSize=12;align=left;" parent="XvRTc8nWdfIURf5c1jla-19" source="382b91b5511bd0f7-1" target="XvRTc8nWdfIURf5c1jla-21" edge="1">
          <mxGeometry relative="1" as="geometry">
            <mxPoint x="200" y="190" as="sourcePoint" />
            <mxPoint x="700" y="190" as="targetPoint" />
          </mxGeometry>
        </mxCell>
        <mxCell id="XvRTc8nWdfIURf5c1jla-26" value="" style="edgeStyle=orthogonalEdgeStyle;rounded=0;orthogonalLoop=1;jettySize=auto;html=1;" parent="XvRTc8nWdfIURf5c1jla-19" source="XvRTc8nWdfIURf5c1jla-21" target="XvRTc8nWdfIURf5c1jla-18" edge="1">
          <mxGeometry relative="1" as="geometry" />
        </mxCell>
        <mxCell id="XvRTc8nWdfIURf5c1jla-21" value="Verifica permissões" style="rounded=1;whiteSpace=wrap;html=1;arcSize=24;fillColor=#ffffc0;strokeColor=#ff0000;shadow=0;comic=0;labelBackgroundColor=none;fontFamily=Verdana;fontSize=12;fontColor=#000000;align=center;" parent="XvRTc8nWdfIURf5c1jla-19" vertex="1">
          <mxGeometry x="100" y="110" width="120" height="60.62" as="geometry" />
        </mxCell>
        <mxCell id="XvRTc8nWdfIURf5c1jla-28" value="Sim" style="edgeStyle=orthogonalEdgeStyle;rounded=0;orthogonalLoop=1;jettySize=auto;html=1;entryX=0.5;entryY=0;entryDx=0;entryDy=0;" parent="XvRTc8nWdfIURf5c1jla-19" source="XvRTc8nWdfIURf5c1jla-18" target="XvRTc8nWdfIURf5c1jla-29" edge="1">
          <mxGeometry relative="1" as="geometry">
            <mxPoint x="335" y="250" as="targetPoint" />
          </mxGeometry>
        </mxCell>
        <mxCell id="XvRTc8nWdfIURf5c1jla-61" value="Não" style="edgeStyle=orthogonalEdgeStyle;rounded=0;orthogonalLoop=1;jettySize=auto;html=1;" parent="XvRTc8nWdfIURf5c1jla-19" source="XvRTc8nWdfIURf5c1jla-18" target="XvRTc8nWdfIURf5c1jla-60" edge="1">
          <mxGeometry relative="1" as="geometry" />
        </mxCell>
        <mxCell id="XvRTc8nWdfIURf5c1jla-18" value="Referenciada?" style="rhombus;whiteSpace=wrap;html=1;" parent="XvRTc8nWdfIURf5c1jla-19" vertex="1">
          <mxGeometry x="280" y="85" width="110" height="110" as="geometry" />
        </mxCell>
        <mxCell id="XvRTc8nWdfIURf5c1jla-31" value="Não" style="edgeStyle=orthogonalEdgeStyle;rounded=0;orthogonalLoop=1;jettySize=auto;html=1;entryX=0.75;entryY=1;entryDx=0;entryDy=0;" parent="XvRTc8nWdfIURf5c1jla-19" source="XvRTc8nWdfIURf5c1jla-29" target="XvRTc8nWdfIURf5c1jla-21" edge="1">
          <mxGeometry relative="1" as="geometry">
            <mxPoint x="350" y="385" as="targetPoint" />
          </mxGeometry>
        </mxCell>
        <mxCell id="XvRTc8nWdfIURf5c1jla-37" value="Sim" style="edgeStyle=orthogonalEdgeStyle;rounded=0;orthogonalLoop=1;jettySize=auto;html=1;" parent="XvRTc8nWdfIURf5c1jla-19" source="XvRTc8nWdfIURf5c1jla-29" edge="1">
          <mxGeometry relative="1" as="geometry">
            <mxPoint x="460" y="385" as="targetPoint" />
          </mxGeometry>
        </mxCell>
        <mxCell id="XvRTc8nWdfIURf5c1jla-29" value="Receita&lt;br&gt;carregada?" style="rhombus;whiteSpace=wrap;html=1;" parent="XvRTc8nWdfIURf5c1jla-19" vertex="1">
          <mxGeometry x="280" y="330" width="110" height="110" as="geometry" />
        </mxCell>
        <mxCell id="XvRTc8nWdfIURf5c1jla-41" style="edgeStyle=orthogonalEdgeStyle;rounded=0;orthogonalLoop=1;jettySize=auto;html=1;exitX=0.5;exitY=0;exitDx=0;exitDy=0;entryX=0.5;entryY=0;entryDx=0;entryDy=0;" parent="XvRTc8nWdfIURf5c1jla-19" source="XvRTc8nWdfIURf5c1jla-39" target="XvRTc8nWdfIURf5c1jla-21" edge="1">
          <mxGeometry relative="1" as="geometry" />
        </mxCell>
        <mxCell id="XvRTc8nWdfIURf5c1jla-42" value="Não finalizou" style="edgeLabel;html=1;align=center;verticalAlign=middle;resizable=0;points=[];" parent="XvRTc8nWdfIURf5c1jla-41" vertex="1" connectable="0">
          <mxGeometry x="-0.0903" y="-1" relative="1" as="geometry">
            <mxPoint as="offset" />
          </mxGeometry>
        </mxCell>
        <mxCell id="XvRTc8nWdfIURf5c1jla-66" style="edgeStyle=orthogonalEdgeStyle;rounded=0;orthogonalLoop=1;jettySize=auto;html=1;exitX=0.25;exitY=1;exitDx=0;exitDy=0;entryX=1;entryY=0;entryDx=0;entryDy=0;" parent="XvRTc8nWdfIURf5c1jla-19" source="XvRTc8nWdfIURf5c1jla-39" target="XvRTc8nWdfIURf5c1jla-29" edge="1">
          <mxGeometry relative="1" as="geometry">
            <Array as="points">
              <mxPoint x="870" y="290" />
              <mxPoint x="362" y="290" />
            </Array>
          </mxGeometry>
        </mxCell>
        <mxCell id="XvRTc8nWdfIURf5c1jla-39" value="Ciclo de referência" style="swimlane;whiteSpace=wrap;html=1;" parent="XvRTc8nWdfIURf5c1jla-19" vertex="1">
          <mxGeometry x="820" y="82.81" width="200" height="115" as="geometry" />
        </mxCell>
        <mxCell id="XvRTc8nWdfIURf5c1jla-38" value="*Verificar a página correspondente" style="rounded=1;whiteSpace=wrap;html=1;arcSize=24;fillColor=#ffffc0;strokeColor=#ff0000;shadow=0;comic=0;labelBackgroundColor=none;fontFamily=Verdana;fontSize=12;fontColor=#000000;align=center;" parent="XvRTc8nWdfIURf5c1jla-39" vertex="1">
          <mxGeometry x="40" y="35.62" width="120" height="60" as="geometry" />
        </mxCell>
        <mxCell id="XvRTc8nWdfIURf5c1jla-45" style="edgeStyle=orthogonalEdgeStyle;rounded=0;orthogonalLoop=1;jettySize=auto;html=1;exitX=0.5;exitY=1;exitDx=0;exitDy=0;entryX=0.5;entryY=0;entryDx=0;entryDy=0;" parent="XvRTc8nWdfIURf5c1jla-19" source="XvRTc8nWdfIURf5c1jla-44" target="XvRTc8nWdfIURf5c1jla-69" edge="1">
          <mxGeometry relative="1" as="geometry">
            <mxPoint x="138" y="170" as="targetPoint" />
          </mxGeometry>
        </mxCell>
        <mxCell id="XvRTc8nWdfIURf5c1jla-46" value="Sim" style="edgeLabel;html=1;align=center;verticalAlign=middle;resizable=0;points=[];" parent="XvRTc8nWdfIURf5c1jla-45" vertex="1" connectable="0">
          <mxGeometry x="-0.7072" y="-2" relative="1" as="geometry">
            <mxPoint as="offset" />
          </mxGeometry>
        </mxCell>
        <mxCell id="XvRTc8nWdfIURf5c1jla-48" value="Não" style="edgeStyle=orthogonalEdgeStyle;rounded=0;orthogonalLoop=1;jettySize=auto;html=1;" parent="XvRTc8nWdfIURf5c1jla-19" source="XvRTc8nWdfIURf5c1jla-44" target="XvRTc8nWdfIURf5c1jla-47" edge="1">
          <mxGeometry relative="1" as="geometry" />
        </mxCell>
        <mxCell id="XvRTc8nWdfIURf5c1jla-44" value="Buscou &lt;br&gt;posição&lt;br&gt;inicial?" style="rhombus;whiteSpace=wrap;html=1;" parent="XvRTc8nWdfIURf5c1jla-19" vertex="1">
          <mxGeometry x="460" y="330" width="110" height="110" as="geometry" />
        </mxCell>
        <mxCell id="XvRTc8nWdfIURf5c1jla-51" style="edgeStyle=orthogonalEdgeStyle;rounded=0;orthogonalLoop=1;jettySize=auto;html=1;exitX=1;exitY=0.5;exitDx=0;exitDy=0;entryX=0;entryY=0.5;entryDx=0;entryDy=0;" parent="XvRTc8nWdfIURf5c1jla-19" source="XvRTc8nWdfIURf5c1jla-47" target="XvRTc8nWdfIURf5c1jla-49" edge="1">
          <mxGeometry relative="1" as="geometry">
            <mxPoint x="805" y="385" as="targetPoint" />
          </mxGeometry>
        </mxCell>
        <mxCell id="XvRTc8nWdfIURf5c1jla-47" value="Aguarda comando&amp;nbsp;&lt;br&gt;de pos. inical" style="rounded=1;whiteSpace=wrap;html=1;arcSize=24;fillColor=#ffffc0;strokeColor=#ff0000;shadow=0;comic=0;labelBackgroundColor=none;fontFamily=Verdana;fontSize=12;fontColor=#000000;align=center;" parent="XvRTc8nWdfIURf5c1jla-19" vertex="1">
          <mxGeometry x="635" y="355" width="120" height="60" as="geometry" />
        </mxCell>
        <mxCell id="XvRTc8nWdfIURf5c1jla-67" style="edgeStyle=orthogonalEdgeStyle;rounded=0;orthogonalLoop=1;jettySize=auto;html=1;exitX=0.5;exitY=1;exitDx=0;exitDy=0;entryX=0;entryY=1;entryDx=0;entryDy=0;" parent="XvRTc8nWdfIURf5c1jla-19" source="XvRTc8nWdfIURf5c1jla-49" target="XvRTc8nWdfIURf5c1jla-21" edge="1">
          <mxGeometry relative="1" as="geometry">
            <mxPoint x="76.44387637867646" y="230" as="targetPoint" />
            <Array as="points">
              <mxPoint x="920" y="630" />
              <mxPoint x="100" y="630" />
            </Array>
          </mxGeometry>
        </mxCell>
        <mxCell id="XvRTc8nWdfIURf5c1jla-68" value="Buscou" style="edgeLabel;html=1;align=center;verticalAlign=middle;resizable=0;points=[];" parent="XvRTc8nWdfIURf5c1jla-67" vertex="1" connectable="0">
          <mxGeometry x="-0.7071" y="-1" relative="1" as="geometry">
            <mxPoint as="offset" />
          </mxGeometry>
        </mxCell>
        <mxCell id="XvRTc8nWdfIURf5c1jla-49" value="Ciclo de posição inicial" style="swimlane;whiteSpace=wrap;html=1;" parent="XvRTc8nWdfIURf5c1jla-19" vertex="1">
          <mxGeometry x="820" y="320" width="200" height="130" as="geometry" />
        </mxCell>
        <mxCell id="XvRTc8nWdfIURf5c1jla-53" value="*Verificar a página correspondente" style="rounded=1;whiteSpace=wrap;html=1;arcSize=24;fillColor=#ffffc0;strokeColor=#ff0000;shadow=0;comic=0;labelBackgroundColor=none;fontFamily=Verdana;fontSize=12;fontColor=#000000;align=center;" parent="XvRTc8nWdfIURf5c1jla-49" vertex="1">
          <mxGeometry x="40" y="45" width="120" height="60" as="geometry" />
        </mxCell>
        <mxCell id="XvRTc8nWdfIURf5c1jla-57" value="Comando" style="edgeStyle=orthogonalEdgeStyle;rounded=0;orthogonalLoop=1;jettySize=auto;html=1;entryX=0;entryY=0.5;entryDx=0;entryDy=0;" parent="XvRTc8nWdfIURf5c1jla-19" target="XvRTc8nWdfIURf5c1jla-39" edge="1">
          <mxGeometry relative="1" as="geometry">
            <mxPoint x="745" y="140" as="sourcePoint" />
          </mxGeometry>
        </mxCell>
        <mxCell id="XvRTc8nWdfIURf5c1jla-62" value="Sim" style="edgeStyle=orthogonalEdgeStyle;rounded=0;orthogonalLoop=1;jettySize=auto;html=1;" parent="XvRTc8nWdfIURf5c1jla-19" source="XvRTc8nWdfIURf5c1jla-60" target="382b91b5511bd0f7-6" edge="1">
          <mxGeometry relative="1" as="geometry" />
        </mxCell>
        <mxCell id="XvRTc8nWdfIURf5c1jla-64" value="Não" style="edgeStyle=orthogonalEdgeStyle;rounded=0;orthogonalLoop=1;jettySize=auto;html=1;exitX=0.5;exitY=1;exitDx=0;exitDy=0;entryX=0;entryY=0.25;entryDx=0;entryDy=0;" parent="XvRTc8nWdfIURf5c1jla-19" source="XvRTc8nWdfIURf5c1jla-60" target="XvRTc8nWdfIURf5c1jla-63" edge="1">
          <mxGeometry relative="1" as="geometry" />
        </mxCell>
        <mxCell id="XvRTc8nWdfIURf5c1jla-60" value="Em posição&lt;br&gt;para&lt;br&gt;referenciar?" style="rhombus;whiteSpace=wrap;html=1;" parent="XvRTc8nWdfIURf5c1jla-19" vertex="1">
          <mxGeometry x="455" y="85.31" width="110" height="110" as="geometry" />
        </mxCell>
        <mxCell id="XvRTc8nWdfIURf5c1jla-65" style="edgeStyle=orthogonalEdgeStyle;rounded=0;orthogonalLoop=1;jettySize=auto;html=1;exitX=0;exitY=0.75;exitDx=0;exitDy=0;entryX=0;entryY=1;entryDx=0;entryDy=0;" parent="XvRTc8nWdfIURf5c1jla-19" source="XvRTc8nWdfIURf5c1jla-63" target="XvRTc8nWdfIURf5c1jla-60" edge="1">
          <mxGeometry relative="1" as="geometry" />
        </mxCell>
        <mxCell id="XvRTc8nWdfIURf5c1jla-63" value="Solicita&lt;br&gt;movimento&lt;br&gt;manual" style="rounded=1;whiteSpace=wrap;html=1;arcSize=24;fillColor=#ffffc0;strokeColor=#ff0000;shadow=0;comic=0;labelBackgroundColor=none;fontFamily=Verdana;fontSize=12;fontColor=#000000;align=center;" parent="XvRTc8nWdfIURf5c1jla-19" vertex="1">
          <mxGeometry x="625" y="210" width="120" height="60" as="geometry" />
        </mxCell>
        <mxCell id="XvRTc8nWdfIURf5c1jla-70" style="edgeStyle=orthogonalEdgeStyle;rounded=0;orthogonalLoop=1;jettySize=auto;html=1;exitX=0;exitY=0.5;exitDx=0;exitDy=0;entryX=0.5;entryY=1;entryDx=0;entryDy=0;" parent="XvRTc8nWdfIURf5c1jla-19" source="XvRTc8nWdfIURf5c1jla-69" target="XvRTc8nWdfIURf5c1jla-21" edge="1">
          <mxGeometry relative="1" as="geometry" />
        </mxCell>
        <mxCell id="XvRTc8nWdfIURf5c1jla-71" value="Não" style="edgeLabel;html=1;align=center;verticalAlign=middle;resizable=0;points=[];" parent="XvRTc8nWdfIURf5c1jla-70" vertex="1" connectable="0">
          <mxGeometry x="-0.8241" y="-2" relative="1" as="geometry">
            <mxPoint as="offset" />
          </mxGeometry>
        </mxCell>
        <mxCell id="XvRTc8nWdfIURf5c1jla-74" value="Sim" style="edgeStyle=orthogonalEdgeStyle;rounded=0;orthogonalLoop=1;jettySize=auto;html=1;exitX=1;exitY=0.5;exitDx=0;exitDy=0;entryX=0;entryY=0.25;entryDx=0;entryDy=0;" parent="XvRTc8nWdfIURf5c1jla-19" source="XvRTc8nWdfIURf5c1jla-69" target="XvRTc8nWdfIURf5c1jla-72" edge="1">
          <mxGeometry relative="1" as="geometry" />
        </mxCell>
        <mxCell id="XvRTc8nWdfIURf5c1jla-69" value="Tem permissão&lt;br&gt;para auto?" style="rhombus;whiteSpace=wrap;html=1;" parent="XvRTc8nWdfIURf5c1jla-19" vertex="1">
          <mxGeometry x="460" y="470" width="110" height="110" as="geometry" />
        </mxCell>
        <mxCell id="XvRTc8nWdfIURf5c1jla-76" style="edgeStyle=orthogonalEdgeStyle;rounded=0;orthogonalLoop=1;jettySize=auto;html=1;exitX=0;exitY=0.75;exitDx=0;exitDy=0;entryX=0.25;entryY=1;entryDx=0;entryDy=0;" parent="XvRTc8nWdfIURf5c1jla-19" source="XvRTc8nWdfIURf5c1jla-72" target="XvRTc8nWdfIURf5c1jla-21" edge="1">
          <mxGeometry relative="1" as="geometry" />
        </mxCell>
        <mxCell id="XvRTc8nWdfIURf5c1jla-72" value="Ciclo automático" style="swimlane;whiteSpace=wrap;html=1;" parent="XvRTc8nWdfIURf5c1jla-19" vertex="1">
          <mxGeometry x="645" y="490" width="200" height="130" as="geometry" />
        </mxCell>
        <mxCell id="XvRTc8nWdfIURf5c1jla-73" value="*Verificar a página correspondente" style="rounded=1;whiteSpace=wrap;html=1;arcSize=24;fillColor=#ffffc0;strokeColor=#ff0000;shadow=0;comic=0;labelBackgroundColor=none;fontFamily=Verdana;fontSize=12;fontColor=#000000;align=center;" parent="XvRTc8nWdfIURf5c1jla-72" vertex="1">
          <mxGeometry x="40" y="45" width="120" height="60" as="geometry" />
        </mxCell>
      </root>
    </mxGraphModel>
  </diagram>
  <diagram id="3cbpQDuLzpWyOEkLkElS" name="Referencia">
    <mxGraphModel dx="1259" dy="708" grid="1" gridSize="10" guides="1" tooltips="1" connect="1" arrows="1" fold="1" page="1" pageScale="1" pageWidth="827" pageHeight="1169" math="0" shadow="0">
      <root>
        <mxCell id="0" />
        <mxCell id="1" parent="0" />
        <mxCell id="ime6wsifp2RUylJkeYZS-1" value="Activity" style="rounded=1;whiteSpace=wrap;html=1;arcSize=24;fillColor=#ffffc0;strokeColor=#ff0000;shadow=0;comic=0;labelBackgroundColor=none;fontFamily=Verdana;fontSize=12;fontColor=#000000;align=center;" parent="1" vertex="1">
          <mxGeometry x="190" y="80" width="120" height="60" as="geometry" />
        </mxCell>
      </root>
    </mxGraphModel>
  </diagram>
  <diagram id="6fDa9ecJobxMqwy6IEnq" name="Posicao inicial">
    <mxGraphModel dx="1259" dy="708" grid="1" gridSize="10" guides="1" tooltips="1" connect="1" arrows="1" fold="1" page="1" pageScale="1" pageWidth="827" pageHeight="1169" math="0" shadow="0">
      <root>
        <mxCell id="0" />
        <mxCell id="1" parent="0" />
      </root>
    </mxGraphModel>
  </diagram>
  <diagram id="FYnrcMYoakFGrCLxg5zn" name="Auto separacao">
    <mxGraphModel dx="1259" dy="708" grid="1" gridSize="10" guides="1" tooltips="1" connect="1" arrows="1" fold="1" page="1" pageScale="1" pageWidth="827" pageHeight="1169" math="0" shadow="0">
      <root>
        <mxCell id="0" />
        <mxCell id="1" parent="0" />
        <mxCell id="IC60sWbBNuIV_KFvY0cg-1" value="Standby" style="rounded=1;whiteSpace=wrap;html=1;arcSize=24;fillColor=#ffffc0;strokeColor=#ff0000;shadow=0;comic=0;labelBackgroundColor=none;fontFamily=Verdana;fontSize=12;fontColor=#000000;align=center;" parent="1" vertex="1">
          <mxGeometry x="10" y="60" width="120" height="60" as="geometry" />
        </mxCell>
        <mxCell id="IC60sWbBNuIV_KFvY0cg-2" value="Verifica entrada" style="rounded=1;whiteSpace=wrap;html=1;arcSize=24;fillColor=#ffffc0;strokeColor=#ff0000;shadow=0;comic=0;labelBackgroundColor=none;fontFamily=Verdana;fontSize=12;fontColor=#000000;align=center;" parent="1" vertex="1">
          <mxGeometry x="147" y="60" width="120" height="60" as="geometry" />
        </mxCell>
        <mxCell id="IC60sWbBNuIV_KFvY0cg-3" value="Verifica saída" style="rounded=1;whiteSpace=wrap;html=1;arcSize=24;fillColor=#ffffc0;strokeColor=#ff0000;shadow=0;comic=0;labelBackgroundColor=none;fontFamily=Verdana;fontSize=12;fontColor=#000000;align=center;" parent="1" vertex="1">
          <mxGeometry x="147" y="520" width="120" height="60" as="geometry" />
        </mxCell>
        <mxCell id="IC60sWbBNuIV_KFvY0cg-4" value="Aguardando&lt;br&gt;robô&lt;br&gt;alimentar" style="rounded=1;whiteSpace=wrap;html=1;arcSize=24;fillColor=#ffffc0;strokeColor=#ff0000;shadow=0;comic=0;labelBackgroundColor=none;fontFamily=Verdana;fontSize=12;fontColor=#000000;align=center;" parent="1" vertex="1">
          <mxGeometry x="287" y="60" width="120" height="60" as="geometry" />
        </mxCell>
        <mxCell id="IC60sWbBNuIV_KFvY0cg-5" value="Aguardando&lt;br&gt;robô&lt;br&gt;retirar pacote" style="rounded=1;whiteSpace=wrap;html=1;arcSize=24;fillColor=#ffffc0;strokeColor=#ff0000;shadow=0;comic=0;labelBackgroundColor=none;fontFamily=Verdana;fontSize=12;fontColor=#000000;align=center;" parent="1" vertex="1">
          <mxGeometry x="287" y="520" width="120" height="60" as="geometry" />
        </mxCell>
        <mxCell id="IC60sWbBNuIV_KFvY0cg-6" value="Tombando para&lt;br&gt;horizontal" style="rounded=1;whiteSpace=wrap;html=1;arcSize=24;fillColor=#ffffc0;strokeColor=#ff0000;shadow=0;comic=0;labelBackgroundColor=none;fontFamily=Verdana;fontSize=12;fontColor=#000000;align=center;" parent="1" vertex="1">
          <mxGeometry x="427" y="60" width="120" height="60" as="geometry" />
        </mxCell>
        <mxCell id="IC60sWbBNuIV_KFvY0cg-7" value="Tombando para&lt;br&gt;vertical" style="rounded=1;whiteSpace=wrap;html=1;arcSize=24;fillColor=#ffffc0;strokeColor=#ff0000;shadow=0;comic=0;labelBackgroundColor=none;fontFamily=Verdana;fontSize=12;fontColor=#000000;align=center;" parent="1" vertex="1">
          <mxGeometry x="567" y="60" width="120" height="60" as="geometry" />
        </mxCell>
        <mxCell id="IC60sWbBNuIV_KFvY0cg-8" value="Tombando para&lt;br&gt;horizontal" style="rounded=1;whiteSpace=wrap;html=1;arcSize=24;fillColor=#ffffc0;strokeColor=#ff0000;shadow=0;comic=0;labelBackgroundColor=none;fontFamily=Verdana;fontSize=12;fontColor=#000000;align=center;" parent="1" vertex="1">
          <mxGeometry x="427" y="520" width="120" height="60" as="geometry" />
        </mxCell>
        <mxCell id="IC60sWbBNuIV_KFvY0cg-9" value="Tombando para&lt;br&gt;vertical" style="rounded=1;whiteSpace=wrap;html=1;arcSize=24;fillColor=#ffffc0;strokeColor=#ff0000;shadow=0;comic=0;labelBackgroundColor=none;fontFamily=Verdana;fontSize=12;fontColor=#000000;align=center;" parent="1" vertex="1">
          <mxGeometry x="567" y="520" width="120" height="60" as="geometry" />
        </mxCell>
        <mxCell id="IC60sWbBNuIV_KFvY0cg-10" value="Posicionando régua&lt;br&gt;para&lt;br&gt;separação" style="rounded=1;whiteSpace=wrap;html=1;arcSize=24;fillColor=#ffffc0;strokeColor=#ff0000;shadow=0;comic=0;labelBackgroundColor=none;fontFamily=Verdana;fontSize=12;fontColor=#000000;align=center;" parent="1" vertex="1">
          <mxGeometry x="147" y="140" width="120" height="60" as="geometry" />
        </mxCell>
        <mxCell id="IC60sWbBNuIV_KFvY0cg-11" value="Posicionando régua&lt;br&gt;para&lt;br&gt;transferência" style="rounded=1;whiteSpace=wrap;html=1;arcSize=24;fillColor=#ffffc0;strokeColor=#ff0000;shadow=0;comic=0;labelBackgroundColor=none;fontFamily=Verdana;fontSize=12;fontColor=#000000;align=center;" parent="1" vertex="1">
          <mxGeometry x="287" y="140" width="120" height="60" as="geometry" />
        </mxCell>
        <mxCell id="IC60sWbBNuIV_KFvY0cg-13" value="Posicionando faca&lt;br&gt;vertical para&lt;br&gt;transferência" style="rounded=1;whiteSpace=wrap;html=1;arcSize=24;fillColor=#ffffc0;strokeColor=#ff0000;shadow=0;comic=0;labelBackgroundColor=none;fontFamily=Verdana;fontSize=12;fontColor=#000000;align=center;" parent="1" vertex="1">
          <mxGeometry x="287" y="220" width="120" height="60" as="geometry" />
        </mxCell>
        <mxCell id="IC60sWbBNuIV_KFvY0cg-14" value="Posicionando faca&lt;br&gt;vertical para&lt;br&gt;separação" style="rounded=1;whiteSpace=wrap;html=1;arcSize=24;fillColor=#ffffc0;strokeColor=#ff0000;shadow=0;comic=0;labelBackgroundColor=none;fontFamily=Verdana;fontSize=12;fontColor=#000000;align=center;" parent="1" vertex="1">
          <mxGeometry x="147" y="220" width="120" height="60" as="geometry" />
        </mxCell>
        <mxCell id="IC60sWbBNuIV_KFvY0cg-15" value="Recuando faca&lt;br style=&quot;border-color: var(--border-color);&quot;&gt;&amp;nbsp;na transversal" style="rounded=1;whiteSpace=wrap;html=1;arcSize=24;fillColor=#ffffc0;strokeColor=#ff0000;shadow=0;comic=0;labelBackgroundColor=none;fontFamily=Verdana;fontSize=12;fontColor=#000000;align=center;" parent="1" vertex="1">
          <mxGeometry x="287" y="300" width="120" height="60" as="geometry" />
        </mxCell>
        <mxCell id="IC60sWbBNuIV_KFvY0cg-16" value="Avançando faca&lt;br&gt;&amp;nbsp;na transversal&lt;br&gt;para coleta" style="rounded=1;whiteSpace=wrap;html=1;arcSize=24;fillColor=#ffffc0;strokeColor=#ff0000;shadow=0;comic=0;labelBackgroundColor=none;fontFamily=Verdana;fontSize=12;fontColor=#000000;align=center;" parent="1" vertex="1">
          <mxGeometry x="147" y="300" width="120" height="60" as="geometry" />
        </mxCell>
        <mxCell id="IC60sWbBNuIV_KFvY0cg-17" value="Movendo carro para fora da régua" style="rounded=1;whiteSpace=wrap;html=1;arcSize=24;fillColor=#ffffc0;strokeColor=#ff0000;shadow=0;comic=0;labelBackgroundColor=none;fontFamily=Verdana;fontSize=12;fontColor=#000000;align=center;" parent="1" vertex="1">
          <mxGeometry x="147" y="380" width="120" height="60" as="geometry" />
        </mxCell>
        <mxCell id="IC60sWbBNuIV_KFvY0cg-18" value="Movendo carro para área de saída" style="rounded=1;whiteSpace=wrap;html=1;arcSize=24;fillColor=#ffffc0;strokeColor=#ff0000;shadow=0;comic=0;labelBackgroundColor=none;fontFamily=Verdana;fontSize=12;fontColor=#000000;align=center;" parent="1" vertex="1">
          <mxGeometry x="287" y="380" width="120" height="60" as="geometry" />
        </mxCell>
        <mxCell id="IC60sWbBNuIV_KFvY0cg-19" value="Avançando faca&lt;br&gt;&amp;nbsp;na transversal&lt;br&gt;para medição" style="rounded=1;whiteSpace=wrap;html=1;arcSize=24;fillColor=#ffffc0;strokeColor=#ff0000;shadow=0;comic=0;labelBackgroundColor=none;fontFamily=Verdana;fontSize=12;fontColor=#000000;align=center;" parent="1" vertex="1">
          <mxGeometry x="427" y="300" width="120" height="60" as="geometry" />
        </mxCell>
        <mxCell id="IC60sWbBNuIV_KFvY0cg-20" value="Movendo carro para posição&lt;br&gt;de coleta" style="rounded=1;whiteSpace=wrap;html=1;arcSize=24;fillColor=#ffffc0;strokeColor=#ff0000;shadow=0;comic=0;labelBackgroundColor=none;fontFamily=Verdana;fontSize=12;fontColor=#000000;align=center;" parent="1" vertex="1">
          <mxGeometry x="427" y="380" width="120" height="60" as="geometry" />
        </mxCell>
        <mxCell id="IC60sWbBNuIV_KFvY0cg-21" value="Movendo carro para início&lt;br&gt;de medição" style="rounded=1;whiteSpace=wrap;html=1;arcSize=24;fillColor=#ffffc0;strokeColor=#ff0000;shadow=0;comic=0;labelBackgroundColor=none;fontFamily=Verdana;fontSize=12;fontColor=#000000;align=center;" parent="1" vertex="1">
          <mxGeometry x="560" y="380" width="120" height="60" as="geometry" />
        </mxCell>
        <mxCell id="IC60sWbBNuIV_KFvY0cg-22" value="Movendo carro para medição" style="rounded=1;whiteSpace=wrap;html=1;arcSize=24;fillColor=#ffffc0;strokeColor=#ff0000;shadow=0;comic=0;labelBackgroundColor=none;fontFamily=Verdana;fontSize=12;fontColor=#000000;align=center;" parent="1" vertex="1">
          <mxGeometry x="700" y="380" width="120" height="60" as="geometry" />
        </mxCell>
        <mxCell id="IC60sWbBNuIV_KFvY0cg-23" value="Movendo carro&lt;br&gt;pós medição" style="rounded=1;whiteSpace=wrap;html=1;arcSize=24;fillColor=#ffffc0;strokeColor=#ff0000;shadow=0;comic=0;labelBackgroundColor=none;fontFamily=Verdana;fontSize=12;fontColor=#000000;align=center;" parent="1" vertex="1">
          <mxGeometry x="840" y="380" width="120" height="60" as="geometry" />
        </mxCell>
        <mxCell id="QVD2qdWweQUWtNv1lUmP-1" value="Tombador de entrada" style="swimlane;whiteSpace=wrap;html=1;" parent="1" vertex="1">
          <mxGeometry x="840" y="20" width="190" height="60" as="geometry" />
        </mxCell>
        <mxCell id="QVD2qdWweQUWtNv1lUmP-2" value="Facas e carro" style="swimlane;whiteSpace=wrap;html=1;" parent="1" vertex="1">
          <mxGeometry x="920" y="550" width="190" height="60" as="geometry" />
        </mxCell>
        <mxCell id="QVD2qdWweQUWtNv1lUmP-5" value="Recebeu&amp;nbsp;&lt;br&gt;Permissão" style="edgeStyle=orthogonalEdgeStyle;rounded=0;orthogonalLoop=1;jettySize=auto;html=1;" parent="1" source="QVD2qdWweQUWtNv1lUmP-3" target="QVD2qdWweQUWtNv1lUmP-4" edge="1">
          <mxGeometry relative="1" as="geometry" />
        </mxCell>
        <mxCell id="QVD2qdWweQUWtNv1lUmP-3" value="Sem permissão&lt;br&gt;para ciclo" style="rounded=1;whiteSpace=wrap;html=1;arcSize=24;fillColor=#ffffc0;strokeColor=#ff0000;shadow=0;comic=0;labelBackgroundColor=none;fontFamily=Verdana;fontSize=12;fontColor=#000000;align=center;" parent="1" vertex="1">
          <mxGeometry x="10" y="670" width="120" height="60" as="geometry" />
        </mxCell>
        <mxCell id="QVD2qdWweQUWtNv1lUmP-7" value="Comando&lt;br&gt;de ciclo" style="edgeStyle=orthogonalEdgeStyle;rounded=0;orthogonalLoop=1;jettySize=auto;html=1;" parent="1" source="QVD2qdWweQUWtNv1lUmP-4" target="QVD2qdWweQUWtNv1lUmP-6" edge="1">
          <mxGeometry relative="1" as="geometry" />
        </mxCell>
        <mxCell id="QVD2qdWweQUWtNv1lUmP-4" value="Standby" style="rounded=1;whiteSpace=wrap;html=1;arcSize=24;fillColor=#ffffc0;strokeColor=#ff0000;shadow=0;comic=0;labelBackgroundColor=none;fontFamily=Verdana;fontSize=12;fontColor=#000000;align=center;" parent="1" vertex="1">
          <mxGeometry x="220" y="670" width="120" height="60" as="geometry" />
        </mxCell>
        <mxCell id="QVD2qdWweQUWtNv1lUmP-6" value="Standby" style="rounded=1;whiteSpace=wrap;html=1;arcSize=24;fillColor=#ffffc0;strokeColor=#ff0000;shadow=0;comic=0;labelBackgroundColor=none;fontFamily=Verdana;fontSize=12;fontColor=#000000;align=center;" parent="1" vertex="1">
          <mxGeometry x="440" y="670" width="120" height="60" as="geometry" />
        </mxCell>
        <mxCell id="QVD2qdWweQUWtNv1lUmP-8" value="Tombador de entrada" style="swimlane;whiteSpace=wrap;html=1;" parent="1" vertex="1">
          <mxGeometry x="650" y="665" width="150" height="70" as="geometry" />
        </mxCell>
        <mxCell id="QVD2qdWweQUWtNv1lUmP-14" value="Alimentou" style="edgeStyle=orthogonalEdgeStyle;rounded=0;orthogonalLoop=1;jettySize=auto;html=1;entryX=0;entryY=0.5;entryDx=0;entryDy=0;" parent="1" source="QVD2qdWweQUWtNv1lUmP-10" target="QVD2qdWweQUWtNv1lUmP-15" edge="1">
          <mxGeometry relative="1" as="geometry">
            <mxPoint x="230" y="840" as="targetPoint" />
            <mxPoint as="offset" />
          </mxGeometry>
        </mxCell>
        <mxCell id="QVD2qdWweQUWtNv1lUmP-10" value="Aguardando&lt;br&gt;robô&lt;br&gt;alimentar" style="rounded=1;whiteSpace=wrap;html=1;arcSize=24;fillColor=#ffffc0;strokeColor=#ff0000;shadow=0;comic=0;labelBackgroundColor=none;fontFamily=Verdana;fontSize=12;fontColor=#000000;align=center;" parent="1" vertex="1">
          <mxGeometry x="27" y="810" width="120" height="60" as="geometry" />
        </mxCell>
        <mxCell id="QVD2qdWweQUWtNv1lUmP-18" value="Tombou" style="edgeStyle=orthogonalEdgeStyle;rounded=0;orthogonalLoop=1;jettySize=auto;html=1;entryX=0;entryY=0.5;entryDx=0;entryDy=0;" parent="1" source="QVD2qdWweQUWtNv1lUmP-15" target="QVD2qdWweQUWtNv1lUmP-19" edge="1">
          <mxGeometry relative="1" as="geometry">
            <mxPoint x="610" y="840" as="targetPoint" />
          </mxGeometry>
        </mxCell>
        <mxCell id="QVD2qdWweQUWtNv1lUmP-15" value="Tombando para&lt;br&gt;horizontal" style="rounded=1;whiteSpace=wrap;html=1;arcSize=24;fillColor=#ffffc0;strokeColor=#ff0000;shadow=0;comic=0;labelBackgroundColor=none;fontFamily=Verdana;fontSize=12;fontColor=#000000;align=center;" parent="1" vertex="1">
          <mxGeometry x="220" y="810" width="120" height="60" as="geometry" />
        </mxCell>
        <mxCell id="QVD2qdWweQUWtNv1lUmP-21" value="Moveu" style="edgeStyle=orthogonalEdgeStyle;rounded=0;orthogonalLoop=1;jettySize=auto;html=1;" parent="1" source="QVD2qdWweQUWtNv1lUmP-19" target="QVD2qdWweQUWtNv1lUmP-20" edge="1">
          <mxGeometry relative="1" as="geometry" />
        </mxCell>
        <mxCell id="QVD2qdWweQUWtNv1lUmP-19" value="Movendo carro para início&lt;br&gt;de medição" style="rounded=1;whiteSpace=wrap;html=1;arcSize=24;fillColor=#ffffc0;strokeColor=#ff0000;shadow=0;comic=0;labelBackgroundColor=none;fontFamily=Verdana;fontSize=12;fontColor=#000000;align=center;" parent="1" vertex="1">
          <mxGeometry x="414" y="810" width="120" height="60" as="geometry" />
        </mxCell>
        <mxCell id="QVD2qdWweQUWtNv1lUmP-23" value="Avançou" style="edgeStyle=orthogonalEdgeStyle;rounded=0;orthogonalLoop=1;jettySize=auto;html=1;" parent="1" source="QVD2qdWweQUWtNv1lUmP-20" target="QVD2qdWweQUWtNv1lUmP-22" edge="1">
          <mxGeometry relative="1" as="geometry" />
        </mxCell>
        <mxCell id="QVD2qdWweQUWtNv1lUmP-20" value="Avançando faca&lt;br&gt;&amp;nbsp;na transversal&lt;br&gt;para medição" style="rounded=1;whiteSpace=wrap;html=1;arcSize=24;fillColor=#ffffc0;strokeColor=#ff0000;shadow=0;comic=0;labelBackgroundColor=none;fontFamily=Verdana;fontSize=12;fontColor=#000000;align=center;" parent="1" vertex="1">
          <mxGeometry x="610" y="810" width="120" height="60" as="geometry" />
        </mxCell>
        <mxCell id="kk2YV7fmn0laLWhZE9Id-2" value="Mediu" style="edgeStyle=orthogonalEdgeStyle;rounded=0;orthogonalLoop=1;jettySize=auto;html=1;" parent="1" source="QVD2qdWweQUWtNv1lUmP-22" target="kk2YV7fmn0laLWhZE9Id-1" edge="1">
          <mxGeometry relative="1" as="geometry" />
        </mxCell>
        <mxCell id="QVD2qdWweQUWtNv1lUmP-22" value="Movendo carro para medição" style="rounded=1;whiteSpace=wrap;html=1;arcSize=24;fillColor=#ffffc0;strokeColor=#ff0000;shadow=0;comic=0;labelBackgroundColor=none;fontFamily=Verdana;fontSize=12;fontColor=#000000;align=center;" parent="1" vertex="1">
          <mxGeometry x="800" y="810" width="120" height="60" as="geometry" />
        </mxCell>
        <mxCell id="kk2YV7fmn0laLWhZE9Id-4" value="Moveu" style="edgeStyle=orthogonalEdgeStyle;rounded=0;orthogonalLoop=1;jettySize=auto;html=1;" parent="1" source="kk2YV7fmn0laLWhZE9Id-1" target="kk2YV7fmn0laLWhZE9Id-3" edge="1">
          <mxGeometry relative="1" as="geometry" />
        </mxCell>
        <mxCell id="kk2YV7fmn0laLWhZE9Id-1" value="Movendo carro&lt;br&gt;pós medição" style="rounded=1;whiteSpace=wrap;html=1;arcSize=24;fillColor=#ffffc0;strokeColor=#ff0000;shadow=0;comic=0;labelBackgroundColor=none;fontFamily=Verdana;fontSize=12;fontColor=#000000;align=center;" parent="1" vertex="1">
          <mxGeometry x="980" y="810" width="120" height="60" as="geometry" />
        </mxCell>
        <mxCell id="kk2YV7fmn0laLWhZE9Id-6" value="Recuou" style="edgeStyle=orthogonalEdgeStyle;rounded=0;orthogonalLoop=1;jettySize=auto;html=1;entryX=1;entryY=0.5;entryDx=0;entryDy=0;" parent="1" source="kk2YV7fmn0laLWhZE9Id-3" target="kk2YV7fmn0laLWhZE9Id-5" edge="1">
          <mxGeometry relative="1" as="geometry">
            <mxPoint x="980" y="1030" as="targetPoint" />
          </mxGeometry>
        </mxCell>
        <mxCell id="kk2YV7fmn0laLWhZE9Id-3" value="Recuando faca&lt;br style=&quot;border-color: var(--border-color);&quot;&gt;&amp;nbsp;na transversal" style="rounded=1;whiteSpace=wrap;html=1;arcSize=24;fillColor=#ffffc0;strokeColor=#ff0000;shadow=0;comic=0;labelBackgroundColor=none;fontFamily=Verdana;fontSize=12;fontColor=#000000;align=center;" parent="1" vertex="1">
          <mxGeometry x="980" y="950" width="120" height="60" as="geometry" />
        </mxCell>
        <mxCell id="kk2YV7fmn0laLWhZE9Id-5" value="Posicionando régua&lt;br&gt;para&lt;br&gt;separação" style="rounded=1;whiteSpace=wrap;html=1;arcSize=24;fillColor=#ffffc0;strokeColor=#ff0000;shadow=0;comic=0;labelBackgroundColor=none;fontFamily=Verdana;fontSize=12;fontColor=#000000;align=center;" parent="1" vertex="1">
          <mxGeometry x="760" y="950" width="120" height="60" as="geometry" />
        </mxCell>
        <mxCell id="kk2YV7fmn0laLWhZE9Id-11" value="" style="edgeStyle=orthogonalEdgeStyle;rounded=0;orthogonalLoop=1;jettySize=auto;html=1;" parent="1" source="kk2YV7fmn0laLWhZE9Id-7" target="kk2YV7fmn0laLWhZE9Id-10" edge="1">
          <mxGeometry relative="1" as="geometry" />
        </mxCell>
        <mxCell id="kk2YV7fmn0laLWhZE9Id-7" value="Movendo carro para posição&lt;br&gt;de coleta" style="rounded=1;whiteSpace=wrap;html=1;arcSize=24;fillColor=#ffffc0;strokeColor=#ff0000;shadow=0;comic=0;labelBackgroundColor=none;fontFamily=Verdana;fontSize=12;fontColor=#000000;align=center;" parent="1" vertex="1">
          <mxGeometry x="760" y="1010" width="120" height="60" as="geometry" />
        </mxCell>
        <mxCell id="ciRXYPWhNxNHEy4aOYyC-2" value="" style="edgeStyle=orthogonalEdgeStyle;rounded=0;orthogonalLoop=1;jettySize=auto;html=1;" edge="1" parent="1" source="kk2YV7fmn0laLWhZE9Id-10" target="ciRXYPWhNxNHEy4aOYyC-1">
          <mxGeometry relative="1" as="geometry" />
        </mxCell>
        <mxCell id="kk2YV7fmn0laLWhZE9Id-10" value="Avançando faca&lt;br&gt;&amp;nbsp;na transversal&lt;br&gt;para coleta" style="rounded=1;whiteSpace=wrap;html=1;arcSize=24;fillColor=#ffffc0;strokeColor=#ff0000;shadow=0;comic=0;labelBackgroundColor=none;fontFamily=Verdana;fontSize=12;fontColor=#000000;align=center;" parent="1" vertex="1">
          <mxGeometry x="590" y="1010" width="120" height="60" as="geometry" />
        </mxCell>
        <mxCell id="ciRXYPWhNxNHEy4aOYyC-4" value="" style="edgeStyle=orthogonalEdgeStyle;rounded=0;orthogonalLoop=1;jettySize=auto;html=1;" edge="1" parent="1" source="ciRXYPWhNxNHEy4aOYyC-1" target="ciRXYPWhNxNHEy4aOYyC-3">
          <mxGeometry relative="1" as="geometry" />
        </mxCell>
        <mxCell id="ciRXYPWhNxNHEy4aOYyC-1" value="Posicionando faca&lt;br&gt;vertical para&lt;br&gt;transferência" style="rounded=1;whiteSpace=wrap;html=1;arcSize=24;fillColor=#ffffc0;strokeColor=#ff0000;shadow=0;comic=0;labelBackgroundColor=none;fontFamily=Verdana;fontSize=12;fontColor=#000000;align=center;" vertex="1" parent="1">
          <mxGeometry x="414" y="1010" width="120" height="60" as="geometry" />
        </mxCell>
        <mxCell id="ciRXYPWhNxNHEy4aOYyC-6" value="" style="edgeStyle=orthogonalEdgeStyle;rounded=0;orthogonalLoop=1;jettySize=auto;html=1;" edge="1" parent="1" source="ciRXYPWhNxNHEy4aOYyC-3" target="ciRXYPWhNxNHEy4aOYyC-5">
          <mxGeometry relative="1" as="geometry" />
        </mxCell>
        <mxCell id="ciRXYPWhNxNHEy4aOYyC-3" value="Movendo carro para fora da régua" style="rounded=1;whiteSpace=wrap;html=1;arcSize=24;fillColor=#ffffc0;strokeColor=#ff0000;shadow=0;comic=0;labelBackgroundColor=none;fontFamily=Verdana;fontSize=12;fontColor=#000000;align=center;" vertex="1" parent="1">
          <mxGeometry x="220" y="1010" width="120" height="60" as="geometry" />
        </mxCell>
        <mxCell id="ciRXYPWhNxNHEy4aOYyC-8" value="" style="edgeStyle=orthogonalEdgeStyle;rounded=0;orthogonalLoop=1;jettySize=auto;html=1;" edge="1" parent="1" source="ciRXYPWhNxNHEy4aOYyC-5" target="ciRXYPWhNxNHEy4aOYyC-7">
          <mxGeometry relative="1" as="geometry" />
        </mxCell>
        <mxCell id="ciRXYPWhNxNHEy4aOYyC-5" value="Posicionando faca&lt;br&gt;vertical para&lt;br&gt;transferência" style="rounded=1;whiteSpace=wrap;html=1;arcSize=24;fillColor=#ffffc0;strokeColor=#ff0000;shadow=0;comic=0;labelBackgroundColor=none;fontFamily=Verdana;fontSize=12;fontColor=#000000;align=center;" vertex="1" parent="1">
          <mxGeometry x="27" y="1010" width="120" height="60" as="geometry" />
        </mxCell>
        <mxCell id="ciRXYPWhNxNHEy4aOYyC-10" value="" style="edgeStyle=orthogonalEdgeStyle;rounded=0;orthogonalLoop=1;jettySize=auto;html=1;" edge="1" parent="1" source="ciRXYPWhNxNHEy4aOYyC-7" target="ciRXYPWhNxNHEy4aOYyC-9">
          <mxGeometry relative="1" as="geometry" />
        </mxCell>
        <mxCell id="ciRXYPWhNxNHEy4aOYyC-7" value="Movendo carro para área de saída" style="rounded=1;whiteSpace=wrap;html=1;arcSize=24;fillColor=#ffffc0;strokeColor=#ff0000;shadow=0;comic=0;labelBackgroundColor=none;fontFamily=Verdana;fontSize=12;fontColor=#000000;align=center;" vertex="1" parent="1">
          <mxGeometry x="27" y="1120" width="120" height="60" as="geometry" />
        </mxCell>
        <mxCell id="ciRXYPWhNxNHEy4aOYyC-12" value="" style="edgeStyle=orthogonalEdgeStyle;rounded=0;orthogonalLoop=1;jettySize=auto;html=1;" edge="1" parent="1" source="ciRXYPWhNxNHEy4aOYyC-9">
          <mxGeometry relative="1" as="geometry">
            <mxPoint x="430" y="1150" as="targetPoint" />
          </mxGeometry>
        </mxCell>
        <mxCell id="ciRXYPWhNxNHEy4aOYyC-9" value="Recuando faca&lt;br style=&quot;border-color: var(--border-color);&quot;&gt;&amp;nbsp;na transversal" style="rounded=1;whiteSpace=wrap;html=1;arcSize=24;fillColor=#ffffc0;strokeColor=#ff0000;shadow=0;comic=0;labelBackgroundColor=none;fontFamily=Verdana;fontSize=12;fontColor=#000000;align=center;" vertex="1" parent="1">
          <mxGeometry x="220" y="1120" width="120" height="60" as="geometry" />
        </mxCell>
        <mxCell id="vDkkssjFs42BVGXl3WK4-3" value="Não" style="edgeStyle=orthogonalEdgeStyle;rounded=0;orthogonalLoop=1;jettySize=auto;html=1;entryX=0.5;entryY=1;entryDx=0;entryDy=0;" edge="1" parent="1" source="vDkkssjFs42BVGXl3WK4-1" target="QVD2qdWweQUWtNv1lUmP-19">
          <mxGeometry relative="1" as="geometry">
            <mxPoint x="590" y="1150" as="targetPoint" />
            <Array as="points">
              <mxPoint x="560" y="1150" />
              <mxPoint x="560" y="920" />
              <mxPoint x="474" y="920" />
            </Array>
          </mxGeometry>
        </mxCell>
        <mxCell id="vDkkssjFs42BVGXl3WK4-12" value="Sim" style="edgeStyle=orthogonalEdgeStyle;rounded=0;orthogonalLoop=1;jettySize=auto;html=1;exitX=0.5;exitY=0;exitDx=0;exitDy=0;entryX=1;entryY=0.5;entryDx=0;entryDy=0;" edge="1" parent="1" source="vDkkssjFs42BVGXl3WK4-1" target="vDkkssjFs42BVGXl3WK4-7">
          <mxGeometry relative="1" as="geometry">
            <Array as="points">
              <mxPoint x="370" y="1106" />
              <mxPoint x="370" y="930" />
            </Array>
          </mxGeometry>
        </mxCell>
        <mxCell id="vDkkssjFs42BVGXl3WK4-1" value="Necessita&lt;br&gt;lâminas?" style="rhombus;whiteSpace=wrap;html=1;" vertex="1" parent="1">
          <mxGeometry x="430.75" y="1106.25" width="86.5" height="87.5" as="geometry" />
        </mxCell>
        <mxCell id="vDkkssjFs42BVGXl3WK4-11" value="" style="edgeStyle=orthogonalEdgeStyle;rounded=0;orthogonalLoop=1;jettySize=auto;html=1;" edge="1" parent="1" source="vDkkssjFs42BVGXl3WK4-7" target="QVD2qdWweQUWtNv1lUmP-10">
          <mxGeometry relative="1" as="geometry" />
        </mxCell>
        <mxCell id="vDkkssjFs42BVGXl3WK4-7" value="Tombando para&lt;br&gt;vertical" style="rounded=1;whiteSpace=wrap;html=1;arcSize=24;fillColor=#ffffc0;strokeColor=#ff0000;shadow=0;comic=0;labelBackgroundColor=none;fontFamily=Verdana;fontSize=12;fontColor=#000000;align=center;" vertex="1" parent="1">
          <mxGeometry x="27" y="900" width="120" height="60" as="geometry" />
        </mxCell>
        <mxCell id="vDkkssjFs42BVGXl3WK4-16" value="&lt;font style=&quot;font-size: 11px;&quot;&gt;Inicia ciclo&lt;/font&gt;" style="edgeStyle=orthogonalEdgeStyle;rounded=0;orthogonalLoop=1;jettySize=auto;html=1;fontSize=11;" edge="1" parent="1" source="vDkkssjFs42BVGXl3WK4-13" target="vDkkssjFs42BVGXl3WK4-15">
          <mxGeometry relative="1" as="geometry" />
        </mxCell>
        <mxCell id="vDkkssjFs42BVGXl3WK4-13" value="Standby" style="rounded=1;whiteSpace=wrap;html=1;arcSize=24;fillColor=#ffffc0;strokeColor=#ff0000;shadow=0;comic=0;labelBackgroundColor=none;fontFamily=Verdana;fontSize=12;fontColor=#000000;align=center;" vertex="1" parent="1">
          <mxGeometry x="100" y="1310" width="120" height="60" as="geometry" />
        </mxCell>
        <mxCell id="vDkkssjFs42BVGXl3WK4-14" value="Tombador de entrada" style="text;html=1;strokeColor=none;fillColor=none;align=center;verticalAlign=middle;whiteSpace=wrap;rounded=0;fontSize=26;" vertex="1" parent="1">
          <mxGeometry x="310" y="1240" width="400" height="30" as="geometry" />
        </mxCell>
        <mxCell id="vDkkssjFs42BVGXl3WK4-18" value="Sim" style="edgeStyle=orthogonalEdgeStyle;rounded=0;orthogonalLoop=1;jettySize=auto;html=1;fontSize=11;" edge="1" parent="1" source="vDkkssjFs42BVGXl3WK4-15" target="vDkkssjFs42BVGXl3WK4-17">
          <mxGeometry relative="1" as="geometry" />
        </mxCell>
        <mxCell id="vDkkssjFs42BVGXl3WK4-15" value="Necessita&lt;br&gt;lâminas?" style="rhombus;whiteSpace=wrap;html=1;" vertex="1" parent="1">
          <mxGeometry x="327.5" y="1296.25" width="86.5" height="87.5" as="geometry" />
        </mxCell>
        <mxCell id="vDkkssjFs42BVGXl3WK4-26" value="Perm. OK" style="edgeStyle=orthogonalEdgeStyle;rounded=0;orthogonalLoop=1;jettySize=auto;html=1;fontSize=11;" edge="1" parent="1" source="vDkkssjFs42BVGXl3WK4-17" target="vDkkssjFs42BVGXl3WK4-25">
          <mxGeometry relative="1" as="geometry" />
        </mxCell>
        <mxCell id="vDkkssjFs42BVGXl3WK4-17" value="Aguardando perm.&lt;br&gt;para tombar vert." style="rounded=1;whiteSpace=wrap;html=1;arcSize=24;fillColor=#ffffc0;strokeColor=#ff0000;shadow=0;comic=0;labelBackgroundColor=none;fontFamily=Verdana;fontSize=12;fontColor=#000000;align=center;" vertex="1" parent="1">
          <mxGeometry x="490" y="1310" width="120" height="60" as="geometry" />
        </mxCell>
        <mxCell id="vDkkssjFs42BVGXl3WK4-21" value="List" style="swimlane;fontStyle=0;childLayout=stackLayout;horizontal=1;startSize=30;horizontalStack=0;resizeParent=1;resizeParentMax=0;resizeLast=0;collapsible=1;marginBottom=0;whiteSpace=wrap;html=1;fontSize=11;" vertex="1" collapsed="1" parent="1">
          <mxGeometry x="610" y="1300" width="60" height="30" as="geometry">
            <mxRectangle x="610" y="1300" width="140" height="90" as="alternateBounds" />
          </mxGeometry>
        </mxCell>
        <mxCell id="vDkkssjFs42BVGXl3WK4-22" value="Facas recuadas;" style="text;strokeColor=none;fillColor=none;align=left;verticalAlign=middle;spacingLeft=4;spacingRight=4;overflow=hidden;points=[[0,0.5],[1,0.5]];portConstraint=eastwest;rotatable=0;whiteSpace=wrap;html=1;fontSize=11;" vertex="1" parent="vDkkssjFs42BVGXl3WK4-21">
          <mxGeometry y="30" width="140" height="30" as="geometry" />
        </mxCell>
        <mxCell id="vDkkssjFs42BVGXl3WK4-23" value="Robô fora da área" style="text;strokeColor=none;fillColor=none;align=left;verticalAlign=middle;spacingLeft=4;spacingRight=4;overflow=hidden;points=[[0,0.5],[1,0.5]];portConstraint=eastwest;rotatable=0;whiteSpace=wrap;html=1;fontSize=11;" vertex="1" parent="vDkkssjFs42BVGXl3WK4-21">
          <mxGeometry y="60" width="140" height="30" as="geometry" />
        </mxCell>
        <mxCell id="vDkkssjFs42BVGXl3WK4-25" value="Tombando para&lt;br&gt;vertical" style="rounded=1;whiteSpace=wrap;html=1;arcSize=24;fillColor=#ffffc0;strokeColor=#ff0000;shadow=0;comic=0;labelBackgroundColor=none;fontFamily=Verdana;fontSize=12;fontColor=#000000;align=center;" vertex="1" parent="1">
          <mxGeometry x="700" y="1310" width="120" height="60" as="geometry" />
        </mxCell>
      </root>
    </mxGraphModel>
  </diagram>
  <diagram id="3HfUmuwa0ag21hFEX_xY" name="Auto saida">
    <mxGraphModel dx="1259" dy="708" grid="1" gridSize="10" guides="1" tooltips="1" connect="1" arrows="1" fold="1" page="1" pageScale="1" pageWidth="827" pageHeight="1169" math="0" shadow="0">
      <root>
        <mxCell id="0" />
        <mxCell id="1" parent="0" />
      </root>
    </mxGraphModel>
  </diagram>
</mxfile>
